<?xml version="1.0" encoding="UTF-8"?><svg id="uuid-deb05a99-ed82-46b5-a70c-df114188d4a4" xmlns="http://www.w3.org/2000/svg" viewBox="0 0 19 18.5"><defs><style>.uuid-a2630773-dd32-47df-b791-95abb4a7b86a{fill:#b4bac0;}</style></defs><path class="uuid-a2630773-dd32-47df-b791-95abb4a7b86a" d="m9.2,11.7h8.4c.3,0,.6-.3.5-.6l-1.6-6.4c0-.2-.3-.4-.5-.4H7.8c-.3,0-.6.3-.5.6l1.4,6.4c0,.2.3.4.5.4Z"/><path class="uuid-a2630773-dd32-47df-b791-95abb4a7b86a" d="m17.8,13.8s0,0,0,0c-.3-.2-.6-.3-1-.3,0,0-.2,0-.3,0s-.1,0-.2,0c-2.4,0-4.9,0-7.3,0-.3,0-.6,0-.8,0-.5,0-.9-.3-.9-.9,0-.3-2.4-10.4-2.5-10.7,0-.4-.1-.8-.3-1.1C4,.3,3.6,0,3,0c-.2,0-.4,0-.6,0,0,0,0,0,0,0h-1.2c0,0-.1,0-.2,0,0,0-.1,0-.2,0,0,0-.1,0-.2,0,0,0,0,0,0,0-.2.1-.4.4-.5.6,0,.1,0,.2,0,.3,0,0,0,0,0,0,0,.7.5,1.2,1.2,1.2h1.1c.2.1.3.3.4.6,0,.2,2,8.7,2.1,9,0,.3.1.7.2,1-1,.3-1.8,1.3-1.8,2.4s1.1,2.6,2.6,2.6.1,0,.2,0c0,0,.2,0,.2,0,1.2-.2,2.1-1.1,2.1-2.3,0,0,.2,0,.3,0,.2,0,.3,0,.5,0,1.4,0,2.9,0,4.3,0,.2,0,.3,0,.4,0,0,.1,0,.2,0,.3,0,1.4,1.1,2.6,2.6,2.6s2.6-1.1,2.6-2.6-.5-1.7-1.2-2.1Z"/></svg>