<?xml version="1.0" encoding="UTF-8"?><svg id="uuid-8b43cabf-f946-47ef-99d5-08615a2f2f52" xmlns="http://www.w3.org/2000/svg" viewBox="0 0 147.3 147.3"><defs><style>.uuid-bba0e1a7-6575-4ddf-b535-90107f2575a8{fill:#b4bac0;}</style></defs><path class="uuid-bba0e1a7-6575-4ddf-b535-90107f2575a8" d="m0,65c0-.2.2-.3.3-.5,1.2-4.1,4-6.4,8.2-7,3.3-.4,6.6-.9,9.8-1.2,1-.1,1.4-.5,1.7-1.4.8-2.1,1.6-4.2,2.6-6.2.4-.8.3-1.3-.2-1.9-2.1-2.6-4.1-5.3-6.2-7.9-3.3-4.3-3-9,.8-12.8,3-3,6-6,9.1-9,3.8-3.7,8.5-4,12.7-.8,2.7,2.1,5.4,4.1,8.1,6.3.6.5,1.1.5,1.8.2,2.1-.9,4.2-1.8,6.4-2.6.9-.3,1.2-.8,1.3-1.8.4-3.6.8-7.2,1.4-10.8C58.5,3.2,62.2,0,66.6,0c4.5,0,8.9,0,13.4,0,5.4,0,9.1,3.3,9.7,8.6.4,3.3.8,6.6,1.2,9.8,0,.9.5,1.3,1.3,1.6,2.1.8,4.3,1.7,6.4,2.6.7.3,1.2.3,1.8-.2,2.7-2.1,5.4-4.2,8-6.3,4.1-3.2,8.9-2.9,12.6.7,3.1,3.1,6.3,6.2,9.4,9.4,3.5,3.6,3.8,8.4.8,12.4-2.1,2.8-4.2,5.5-6.4,8.2-.5.7-.6,1.1-.2,1.9,1,2.1,1.8,4.2,2.6,6.4.3.8.7,1.1,1.5,1.2,3.3.4,6.6.8,9.8,1.2,5.3.6,8.6,4.3,8.6,9.7,0,4.3,0,8.6,0,12.9,0,4.9-3,8.5-7.8,9.3-3.4.6-6.9,1-10.4,1.3-1,.1-1.5.5-1.8,1.4-.7,2.1-1.6,4.1-2.5,6.1-.4.9-.3,1.4.3,2.2,2.1,2.6,4.1,5.2,6.1,7.8,3.2,4.2,2.9,9-.8,12.7-3,3.1-6.1,6.1-9.2,9.2-3.8,3.7-8.5,4-12.7.8-2.6-2-5.2-4-7.8-6.1-.7-.6-1.3-.7-2.2-.3-2,1-4,1.8-6.1,2.5-1,.3-1.3.8-1.4,1.8-.3,3.3-.7,6.6-1.2,9.8-.6,4.3-2.9,7.1-7.2,8.2-.2,0-.3.2-.5.2h-16.7c-.2,0-.3-.2-.5-.2-4.1-1.1-6.5-3.7-7.1-7.9-.5-3.4-.9-6.7-1.3-10.1-.1-1-.5-1.5-1.4-1.8-2-.7-4-1.5-6-2.5-.9-.4-1.5-.4-2.3.2-2.6,2.1-5.3,4.2-7.9,6.2-4.2,3.1-8.9,2.8-12.6-.9-3-3-6-6-9-9-3.8-3.9-4.1-8.6-.8-12.9,2-2.7,4.1-5.3,6.1-8,.3-.4.4-1.2.2-1.6-.8-2.2-1.8-4.4-2.8-6.6-.2-.5-.9-1-1.4-1.1-3.3-.5-6.5-.9-9.8-1.3-2.6-.3-4.9-1.2-6.5-3.3-1-1.3-1.5-2.9-2.2-4.4,0-5.7,0-11.3,0-17Zm73.6,76.1c2.1,0,4.1,0,6.2,0,2.5,0,3.6-.9,3.9-3.4.5-4,1-8.1,1.5-12.1.2-1.8,1-2.8,2.8-3.4,3.4-1.2,6.7-2.6,9.9-4.1,1.7-.8,3-.7,4.5.5,3.1,2.5,6.3,5,9.5,7.4,2.1,1.6,3.3,1.5,5.1-.3,2.9-2.9,5.8-5.8,8.7-8.7,1.8-1.8,1.8-3,.3-5-2.5-3.3-5.1-6.6-7.7-9.9-1-1.3-1-2.5-.4-4,1.5-3.4,2.9-6.7,4.2-10.2.6-1.6,1.6-2.5,3.3-2.7,4.1-.5,8.2-1,12.3-1.5,2.4-.3,3.4-1.4,3.4-3.8,0-4.1,0-8.2,0-12.4,0-2.4-.9-3.5-3.4-3.8-4.1-.5-8.2-1-12.3-1.5-1.7-.2-2.7-1-3.3-2.7-1.3-3.4-2.6-6.7-4.1-9.9-.8-1.7-.8-3,.4-4.5,2.6-3.2,5.1-6.5,7.6-9.8,1.5-1.9,1.4-3.2-.3-4.9-2.9-2.9-5.8-5.8-8.7-8.7-1.8-1.8-3.1-1.9-5.1-.3-3.3,2.5-6.5,5-9.8,7.6-1.3,1-2.6,1.1-4.1.4-3.3-1.5-6.7-2.9-10.1-4.2-1.7-.6-2.6-1.6-2.8-3.4-.5-4-1-8.1-1.5-12.1-.3-2.5-1.4-3.4-3.9-3.5-4.1,0-8.1,0-12.2,0-2.5,0-3.6.9-3.9,3.4-.5,4-1,8.1-1.5,12.1-.2,1.8-1,2.8-2.8,3.4-3.4,1.3-6.8,2.7-10.2,4.2-1.5.7-2.7.6-4-.4-3.3-2.6-6.6-5.2-10-7.8-1.9-1.4-3.1-1.3-4.8.3-2.9,2.9-5.8,5.8-8.7,8.7-1.9,1.9-2,3.1-.3,5.2,2.5,3.2,4.9,6.4,7.4,9.5,1.2,1.5,1.2,2.8.4,4.5-1.5,3.2-2.8,6.4-4,9.7-.7,1.9-1.7,2.8-3.7,3-4,.4-8,1-12,1.5-2.4.3-3.4,1.4-3.4,3.8,0,4.1,0,8.2,0,12.4,0,2.4.9,3.5,3.4,3.8,4,.5,8.1,1.1,12.1,1.5,1.8.2,2.9,1.1,3.5,2.8,1.2,3.3,2.6,6.6,4.1,9.8.8,1.7.8,3-.4,4.5-2.6,3.3-5.1,6.6-7.7,9.9-1.4,1.8-1.3,3.1.3,4.7,2.9,2.9,5.8,5.8,8.7,8.7,2,2,3.1,2,5.4.3,3.2-2.5,6.4-5,9.6-7.5,1.3-1,2.6-1.1,4.1-.4,3.2,1.5,6.5,2.9,9.8,4.1,1.9.7,2.9,1.8,3.1,3.8.4,4,1,8,1.5,12,.3,2.4,1.4,3.3,3.9,3.3,2,0,4,0,6,0Z"/><path class="uuid-bba0e1a7-6575-4ddf-b535-90107f2575a8" d="m74.6,104.3c-16.6.8-30.8-12.6-31.6-29.7-.8-16.7,12.6-30.9,29.7-31.7,16.6-.7,30.8,12.6,31.6,29.7.8,16.6-12.6,30.9-29.7,31.7Zm-.9-6.2c13.6,0,24.5-11,24.4-24.5,0-13.6-10.9-24.5-24.5-24.5-13.6,0-24.6,11-24.5,24.6,0,13.6,11,24.5,24.6,24.4Z"/></svg>