<svg xmlns="http://www.w3.org/2000/svg" xmlns:xlink="http://www.w3.org/1999/xlink" id="Layer_1" x="0px" y="0px" viewBox="0 0 265 76" style="enable-background:new 0 0 265 76;" xml:space="preserve"><style type="text/css">	.st0{opacity:0.7;}	.st1{fill:#FFFFFF;}	.st2{fill:#16E3BA;}</style><g class="st0">	<path class="st1" d="M180,20.9c-3.7,0-7.3,2-10.8,5.8c-0.1-1.5-0.7-2.9-1.9-4.1c-1.3-1.4-2.4-2-3.5-2c-0.7,0-2.3,0.3-2.3,2.8  c0,5.8-2.1,17.4-6.3,34.4c-1.9,7.7-2.1,9.3-2.1,9.9c0,0.9,0.4,1.9,1.2,3c0.9,1.2,1.7,1.8,2.6,1.8c1.2,0,2-1.4,2.9-5.1  c0.4-1.4,0.7-2.8,1.1-4.1c0.3-1.3,0.7-2.9,1.1-4.8c0.3-1.4,0.6-2.4,0.7-3.2c2.8,0.5,6.1-0.2,9.6-1.9c2.7-1.4,5.2-3.1,7.5-5.2  c2.3-2.1,4.2-4.5,5.7-7.1c1.6-2.7,2.4-5.4,2.4-8.2c0-2.7-0.7-5.4-2.2-7.9C184.2,22.2,182.3,20.9,180,20.9z M180.4,32.9  c0,2.4-0.9,4.9-2.7,7.3c-1.8,2.5-4.1,4.6-6.7,6.1c-2.4,1.4-4.6,2.2-6.7,2.3l1.2-5c1.7-4.6,3.9-8.3,6.8-11.1  c3.4-3.4,5.3-4.2,6.4-4.2C180.1,28.3,180.4,30.8,180.4,32.9z"></path>	<path class="st1" d="M198.9,2.6c-0.9,0-1.5,0.3-1.8,0.8c-0.3,0.4-0.4,1-0.4,1.8c0,5.7-0.6,12.2-1.9,19.3  c-1.3,7.2-2.6,13.3-3.8,18.1c-1.9,7.5-1.9,8.1-1.9,8.4c0,0.8,0.5,1.6,1.4,2.8c1,1.2,1.9,1.8,2.8,1.8c0.9,0,2,0,5.5-14.1  c3.4-13.2,5.2-24.1,5.2-32.5c0-1.4-0.6-2.8-1.8-4.2C200.8,3.3,199.8,2.6,198.9,2.6z"></path>	<path class="st1" d="M233.1,23.1c-1.1-1.4-2-2.1-2.9-2.1c-0.9,0-1.5,0.3-1.9,0.8c-0.2,0.4-0.4,0.9-0.6,1.7  c-0.9,3.3-2.3,6.9-4.2,10.8c-1.9,3.9-3.9,7.3-6.2,10.2c-2.7,3.4-4.3,4.1-5.3,4.1c-0.4,0-0.7-0.1-1-0.4c-0.3-0.3-0.4-0.7-0.4-1.2  c0-2.4,0.6-5.2,1.7-8.3c1.2-3.2,2.4-6.1,3.5-8.5c1.7-3.5,1.9-4.3,1.9-4.6c0-1.1-0.4-2.1-1.1-3c-0.8-0.9-1.7-1.4-2.7-1.4  c-1.4,0-3.5,1.1-6.9,10c-2.5,6.3-3.7,11.7-3.7,16c0,2,0.9,3.9,2.6,5.7c1.7,1.8,3.7,2.8,5.7,2.8c2,0,4.2-1.1,6.5-3.1  c1.2-1,2.3-2.3,3.4-3.6c-0.2,1-0.3,1.9-0.3,2.5c0,1.5,0.3,2.5,0.8,3.2c0.6,0.7,1.3,1,2.1,1c1.4,0,2.4-1.1,3.1-3.4  c1.1-3.6,2.6-8.6,4.5-14.8c2.9-9.4,2.9-10.1,2.9-10.4C234.6,25.7,234.1,24.4,233.1,23.1z"></path>	<path class="st1" d="M259.8,23.9c-1.5-1.9-3.1-2.8-4.9-2.8c-2.6,0-5.8,1.3-9.6,3.9c-4,2.7-5.9,5.3-5.9,8c0,1.6,0.7,3.1,2.2,4.5  c1.3,1.3,2.8,2.5,4.4,3.4c1.5,0.8,2.8,1.8,4.1,2.9c1.1,0.9,1.6,1.8,1.6,2.5c0,0.4-0.1,1-1.3,1.6c-1,0.5-2.8,0.8-5.2,0.8  c-2.4,0-4.7-0.8-6.9-2.4c-1-0.7-1.7-1-2.4-1c-0.7,0-1.3,0.3-1.7,0.8c-0.4,0.5-0.6,1.1-0.6,1.9c0,1.7,1.3,3.4,4.1,5.1  c2.6,1.6,5.6,2.4,8.9,2.4c3.4,0,6.3-0.9,8.9-2.6c2.6-1.8,4-3.8,4-5.8c0-1.9-0.7-3.8-2.1-5.4c-1.3-1.6-2.8-2.9-4.4-3.9  c-5.4-3.3-5.7-4.4-5.7-4.5c0-1.3,1.6-2.4,3-3.1c2.7-1.4,4-1.7,4.6-1.7c0.9,0,1.7,0.3,2.6,1c1.2,0.9,2.1,1.3,2.8,1.3  c1.2,0,1.9-0.8,1.9-2C261.9,27.3,261.2,25.7,259.8,23.9z"></path></g><g>	<g>		<g id="XMLID_00000126314341789839789320000003625926002023533239_">			<path id="XMLID_00000034077313060369501590000011080503041600916358_" class="st2" d="M6.6,8.3c-2.1,0-3.7,1.6-3.7,3.7    s1.6,3.7,3.7,3.7h4.7l8.6,35.5c-0.3,0.2-0.7,0.4-1,0.7c-2.2,1.3-3.6,3.7-3.6,6.3c0,4.1,3.4,7.5,7.5,7.5s7.5-3.4,7.5-7.5h20    c0,4.1,3.4,7.5,7.5,7.5c4.1,0,7.5-3.4,7.5-7.5c0-2.7-1.4-5.1-3.6-6.4c-0.7-0.7-1.6-1.1-2.6-1.1H27.5v-0.2l-9.3-38.8    c-0.1-0.4-0.3-0.8-0.5-1.1l-0.1-0.2l0,0c-0.7-1.2-1.9-2.1-3.3-2.1H6.6V8.3z"></path>		</g>		<polygon class="st2" points="26.2,20.7 31.5,45.7 64.1,45.7 57.1,20.7   "></polygon>	</g></g><g>	<g>		<path class="st1" d="M66.5,20.8h11.9L83,38.1l5.3-17.5h10l5.4,17.6l4.7-17.5H120l-10.7,34.8H98.9l-5.6-17.9l-5.7,17.9H77.1   L66.5,20.8z"></path>		<path class="st1" d="M137.5,56.1c-2.6,0-5-0.5-7.2-1.4c-2.2-1-4.1-2.2-5.7-3.9c-1.6-1.6-2.9-3.5-3.8-5.7c-0.9-2.2-1.4-4.5-1.4-6.9   v-0.1c0-2.4,0.5-4.7,1.4-6.9c0.9-2.2,2.2-4.1,3.8-5.7c1.6-1.6,3.6-2.9,5.8-3.9c2.3-1,4.8-1.4,7.5-1.4c3.6,0,6.6,0.7,8.9,2.1   c2.4,1.4,4.3,3.3,5.8,5.6l-8.2,6.1c-0.9-1.1-1.8-2-2.7-2.7c-1-0.6-2.2-1-3.7-1c-1,0-1.9,0.2-2.7,0.6c-0.8,0.4-1.5,1-2.1,1.7   c-0.6,0.7-1.1,1.5-1.4,2.4c-0.3,0.9-0.5,1.9-0.5,3v0.1c0,1.1,0.2,2.1,0.5,3.1c0.3,1,0.8,1.8,1.4,2.5c0.6,0.7,1.3,1.3,2.2,1.7   c0.9,0.4,1.8,0.6,2.8,0.6c1.4,0,2.7-0.3,3.7-1c1-0.6,2-1.5,3-2.6l8.1,5.9c-1.6,2.4-3.6,4.3-6.1,5.7   C144.4,55.4,141.3,56.1,137.5,56.1z"></path>	</g></g></svg>